<svg xmlns="http://www.w3.org/2000/svg" xmlns:xlink="http://www.w3.org/1999/xlink" width="2048" zoomAndPan="magnify" viewBox="0 0 1536 1535.999932" height="2048" preserveAspectRatio="xMidYMid meet" version="1.0"><defs><clipPath id="bad4d98095"><path d="M 0 1500.070312 L 101.253906 1500.070312 L 101.253906 1536 L 0 1536 Z M 0 1500.070312 " clip-rule="nonzero"/></clipPath><clipPath id="55301aff71"><path d="M 39.746094 39.746094 L 1496.246094 39.746094 L 1496.246094 1496.246094 L 39.746094 1496.246094 Z M 39.746094 39.746094 " clip-rule="nonzero"/></clipPath><clipPath id="256ec369f7"><path d="M 470.003906 155 L 1066.253906 155 L 1066.253906 1414 L 470.003906 1414 Z M 470.003906 155 " clip-rule="nonzero"/></clipPath></defs><g clip-path="url(#bad4d98095)"><path fill="#ff3131" d="M -96.648438 2833.066406 L -1033.347656 2833.066406 C -1142.605469 2833.066406 -1231.496094 2744.175781 -1231.496094 2634.917969 L -1231.496094 1698.21875 C -1231.496094 1588.960938 -1142.605469 1500.070312 -1033.347656 1500.070312 L -96.648438 1500.070312 C 12.613281 1500.070312 101.5 1588.960938 101.5 1698.21875 L 101.5 2634.917969 C 101.5 2744.175781 12.613281 2833.066406 -96.648438 2833.066406 Z M -1033.347656 1572.125 C -1102.875 1572.125 -1159.441406 1628.691406 -1159.441406 1698.21875 L -1159.441406 2634.917969 C -1159.441406 2704.445312 -1102.875 2761.011719 -1033.347656 2761.011719 L -96.648438 2761.011719 C -27.117188 2761.011719 29.449219 2704.445312 29.449219 2634.917969 L 29.449219 1698.21875 C 29.449219 1628.691406 -27.117188 1572.125 -96.648438 1572.125 Z M -1033.347656 1572.125 " fill-opacity="1" fill-rule="nonzero"/></g><g clip-path="url(#55301aff71)"><path fill="#ffffff" d="M 767.996094 1496.246094 C 365.660156 1496.246094 39.746094 1168.085938 39.746094 767.996094 C 39.746094 367.910156 365.660156 39.746094 767.996094 39.746094 C 1170.332031 39.746094 1496.246094 365.660156 1496.246094 767.996094 C 1496.246094 1170.332031 1168.085938 1496.246094 767.996094 1496.246094 Z M 767.996094 84.699219 C 390.386719 84.699219 84.699219 390.386719 84.699219 767.996094 C 84.699219 1145.609375 390.386719 1451.292969 767.996094 1451.292969 C 1145.609375 1451.292969 1451.292969 1145.609375 1451.292969 767.996094 C 1451.292969 390.386719 1143.359375 84.699219 767.996094 84.699219 Z M 767.996094 84.699219 " fill-opacity="1" fill-rule="nonzero"/></g><g clip-path="url(#256ec369f7)"><path fill="#ffffff" d="M 928.695312 362.824219 L 1066.253906 362.824219 L 1066.253906 155.5 L 890.605469 155.5 L 890.605469 156.292969 C 659.671875 164.753906 612.054688 294.070312 608.085938 430.789062 L 607.558594 430.789062 L 607.558594 574.644531 L 470.003906 574.644531 L 470.003906 782.234375 L 607.558594 782.234375 L 607.558594 1413.199219 L 854.363281 1413.199219 L 854.363281 782.234375 L 1031.335938 782.234375 L 1066.253906 574.644531 L 854.363281 574.644531 L 854.363281 445.859375 C 854.363281 400.113281 885.050781 362.824219 928.695312 362.824219 Z M 928.695312 362.824219 " fill-opacity="1" fill-rule="nonzero"/></g></svg>