<svg xmlns="http://www.w3.org/2000/svg" xmlns:xlink="http://www.w3.org/1999/xlink" width="2048" zoomAndPan="magnify" viewBox="0 0 1536 1535.999932" height="2048" preserveAspectRatio="xMidYMid meet" version="1.0"><defs><clipPath id="379b1fde39"><path d="M 0 1500.070312 L 101.253906 1500.070312 L 101.253906 1536 L 0 1536 Z M 0 1500.070312 " clip-rule="nonzero"/></clipPath><clipPath id="a252aba3bc"><path d="M 46 242 L 1490 242 L 1490 1295.773438 L 46 1295.773438 Z M 46 242 " clip-rule="nonzero"/></clipPath></defs><g clip-path="url(#379b1fde39)"><path fill="#ff3131" d="M -96.648438 2833.066406 L -1033.347656 2833.066406 C -1142.605469 2833.066406 -1231.496094 2744.175781 -1231.496094 2634.917969 L -1231.496094 1698.21875 C -1231.496094 1588.960938 -1142.605469 1500.070312 -1033.347656 1500.070312 L -96.648438 1500.070312 C 12.613281 1500.070312 101.5 1588.960938 101.5 1698.21875 L 101.5 2634.917969 C 101.5 2744.175781 12.613281 2833.066406 -96.648438 2833.066406 Z M -1033.347656 1572.125 C -1102.875 1572.125 -1159.441406 1628.691406 -1159.441406 1698.21875 L -1159.441406 2634.917969 C -1159.441406 2704.445312 -1102.875 2761.011719 -1033.347656 2761.011719 L -96.648438 2761.011719 C -27.117188 2761.011719 29.449219 2704.445312 29.449219 2634.917969 L 29.449219 1698.21875 C 29.449219 1628.691406 -27.117188 1572.125 -96.648438 1572.125 Z M -1033.347656 1572.125 " fill-opacity="1" fill-rule="nonzero"/></g><g clip-path="url(#a252aba3bc)"><path fill="#ffffff" d="M 212.761719 242.257812 C 195.628906 242.257812 179.578125 245.511719 164.179688 250.285156 L 325.976562 353.304688 L 1210.015625 353.304688 L 1371.8125 250.285156 C 1356.414062 245.511719 1340.363281 242.257812 1323.230469 242.257812 Z M 108.003906 280.429688 C 70.484375 311.011719 46.191406 356.992188 46.191406 408.828125 L 46.191406 1130.632812 C 46.191406 1222.378906 121.019531 1297.203125 212.761719 1297.203125 L 1323.230469 1297.203125 C 1414.972656 1297.203125 1489.800781 1222.378906 1489.800781 1130.632812 L 1489.800781 408.828125 C 1489.800781 356.992188 1465.507812 311.011719 1427.988281 280.429688 L 767.996094 700.328125 Z M 212.761719 542.867188 L 767.996094 896.394531 L 1323.230469 542.867188 L 1323.230469 1186.15625 L 212.761719 1186.15625 Z M 212.761719 542.867188 " fill-opacity="1" fill-rule="nonzero"/></g></svg>