<svg xmlns="http://www.w3.org/2000/svg" xmlns:xlink="http://www.w3.org/1999/xlink" width="2048" zoomAndPan="magnify" viewBox="0 0 1536 1535.999932" height="2048" preserveAspectRatio="xMidYMid meet" version="1.0"><defs><clipPath id="0c8b6d06ae"><path d="M 101.5 101.5 L 1434.25 101.5 L 1434.25 1434.25 L 101.5 1434.25 Z M 101.5 101.5 " clip-rule="nonzero"/></clipPath><clipPath id="f09a2152b4"><path d="M 0 1500.070312 L 101.253906 1500.070312 L 101.253906 1536 L 0 1536 Z M 0 1500.070312 " clip-rule="nonzero"/></clipPath></defs><g clip-path="url(#0c8b6d06ae)"><path fill="#ffffff" d="M 1236.351562 1434.496094 L 299.648438 1434.496094 C 190.390625 1434.496094 101.5 1345.609375 101.5 1236.351562 L 101.5 299.648438 C 101.5 190.390625 190.390625 101.5 299.648438 101.5 L 1236.351562 101.5 C 1345.609375 101.5 1434.496094 190.390625 1434.496094 299.648438 L 1434.496094 1236.351562 C 1434.496094 1345.609375 1345.609375 1434.496094 1236.351562 1434.496094 Z M 299.648438 173.554688 C 230.121094 173.554688 173.554688 230.121094 173.554688 299.648438 L 173.554688 1236.351562 C 173.554688 1305.878906 230.121094 1362.445312 299.648438 1362.445312 L 1236.351562 1362.445312 C 1305.878906 1362.445312 1362.445312 1305.878906 1362.445312 1236.351562 L 1362.445312 299.648438 C 1362.445312 230.121094 1305.878906 173.554688 1236.351562 173.554688 Z M 299.648438 173.554688 " fill-opacity="1" fill-rule="nonzero"/></g><path fill="#ffffff" d="M 768 1146.28125 C 559.414062 1146.28125 389.71875 976.585938 389.71875 768 C 389.71875 559.414062 559.414062 389.71875 768 389.71875 C 976.585938 389.71875 1146.28125 559.414062 1146.28125 768 C 1146.28125 976.585938 976.585938 1146.28125 768 1146.28125 Z M 768 461.769531 C 599.144531 461.769531 461.769531 599.144531 461.769531 768 C 461.769531 936.855469 599.144531 1074.226562 768 1074.226562 C 936.855469 1074.226562 1074.230469 936.855469 1074.230469 768 C 1074.230469 599.144531 936.855469 461.769531 768 461.769531 Z M 768 461.769531 " fill-opacity="1" fill-rule="nonzero"/><path fill="#ffffff" d="M 1164.296875 497.796875 C 1094.765625 497.796875 1038.203125 441.230469 1038.203125 371.703125 C 1038.203125 302.175781 1094.765625 245.609375 1164.296875 245.609375 C 1233.824219 245.609375 1290.390625 302.175781 1290.390625 371.703125 C 1290.390625 441.230469 1233.824219 497.796875 1164.296875 497.796875 Z M 1164.296875 317.664062 C 1134.496094 317.664062 1110.253906 341.90625 1110.253906 371.703125 C 1110.253906 401.5 1134.496094 425.742188 1164.296875 425.742188 C 1194.09375 425.742188 1218.335938 401.5 1218.335938 371.703125 C 1218.335938 341.90625 1194.09375 317.664062 1164.296875 317.664062 Z M 1164.296875 317.664062 " fill-opacity="1" fill-rule="nonzero"/><g clip-path="url(#f09a2152b4)"><path fill="#ff3131" d="M -96.648438 2833.066406 L -1033.347656 2833.066406 C -1142.605469 2833.066406 -1231.496094 2744.175781 -1231.496094 2634.917969 L -1231.496094 1698.21875 C -1231.496094 1588.960938 -1142.605469 1500.070312 -1033.347656 1500.070312 L -96.648438 1500.070312 C 12.613281 1500.070312 101.5 1588.960938 101.5 1698.21875 L 101.5 2634.917969 C 101.5 2744.175781 12.613281 2833.066406 -96.648438 2833.066406 Z M -1033.347656 1572.125 C -1102.875 1572.125 -1159.441406 1628.691406 -1159.441406 1698.21875 L -1159.441406 2634.917969 C -1159.441406 2704.445312 -1102.875 2761.011719 -1033.347656 2761.011719 L -96.648438 2761.011719 C -27.117188 2761.011719 29.449219 2704.445312 29.449219 2634.917969 L 29.449219 1698.21875 C 29.449219 1628.691406 -27.117188 1572.125 -96.648438 1572.125 Z M -1033.347656 1572.125 " fill-opacity="1" fill-rule="nonzero"/></g></svg>