<svg xmlns="http://www.w3.org/2000/svg" xmlns:xlink="http://www.w3.org/1999/xlink" width="2048" zoomAndPan="magnify" viewBox="0 0 1536 1535.999932" height="2048" preserveAspectRatio="xMidYMid meet" version="1.0"><defs><clipPath id="a996fc3010"><path d="M 0 1500.070312 L 101.253906 1500.070312 L 101.253906 1536 L 0 1536 Z M 0 1500.070312 " clip-rule="nonzero"/></clipPath><clipPath id="f5f6fb3f08"><path d="M 39.746094 39.746094 L 1496.246094 39.746094 L 1496.246094 1496.246094 L 39.746094 1496.246094 Z M 39.746094 39.746094 " clip-rule="nonzero"/></clipPath><clipPath id="2260bc60ac"><path d="M 308 409 L 1226 409 L 1226 1129.097656 L 308 1129.097656 Z M 308 409 " clip-rule="nonzero"/></clipPath></defs><g clip-path="url(#a996fc3010)"><path fill="#ff3131" d="M -96.648438 2833.066406 L -1033.347656 2833.066406 C -1142.605469 2833.066406 -1231.496094 2744.175781 -1231.496094 2634.917969 L -1231.496094 1698.21875 C -1231.496094 1588.960938 -1142.605469 1500.070312 -1033.347656 1500.070312 L -96.648438 1500.070312 C 12.613281 1500.070312 101.5 1588.960938 101.5 1698.21875 L 101.5 2634.917969 C 101.5 2744.175781 12.613281 2833.066406 -96.648438 2833.066406 Z M -1033.347656 1572.125 C -1102.875 1572.125 -1159.441406 1628.691406 -1159.441406 1698.21875 L -1159.441406 2634.917969 C -1159.441406 2704.445312 -1102.875 2761.011719 -1033.347656 2761.011719 L -96.648438 2761.011719 C -27.117188 2761.011719 29.449219 2704.445312 29.449219 2634.917969 L 29.449219 1698.21875 C 29.449219 1628.691406 -27.117188 1572.125 -96.648438 1572.125 Z M -1033.347656 1572.125 " fill-opacity="1" fill-rule="nonzero"/></g><g clip-path="url(#f5f6fb3f08)"><path fill="#ffffff" d="M 767.996094 1496.246094 C 365.660156 1496.246094 39.746094 1168.085938 39.746094 767.996094 C 39.746094 367.910156 365.660156 39.746094 767.996094 39.746094 C 1170.332031 39.746094 1496.246094 365.660156 1496.246094 767.996094 C 1496.246094 1170.332031 1168.085938 1496.246094 767.996094 1496.246094 Z M 767.996094 84.699219 C 390.386719 84.699219 84.699219 390.386719 84.699219 767.996094 C 84.699219 1145.609375 390.386719 1451.292969 767.996094 1451.292969 C 1145.609375 1451.292969 1451.292969 1145.609375 1451.292969 767.996094 C 1451.292969 390.386719 1143.359375 84.699219 767.996094 84.699219 Z M 767.996094 84.699219 " fill-opacity="1" fill-rule="nonzero"/></g><g clip-path="url(#2260bc60ac)"><path fill="#ffffff" d="M 897.554688 1129.144531 C 888.953125 1129.144531 880.644531 1126.277344 873.765625 1120.832031 L 704.941406 988.410156 L 618.378906 1110.226562 C 615.800781 1113.953125 611.214844 1115.101562 607.203125 1113.667969 C 603.1875 1111.945312 600.609375 1107.933594 601.183594 1103.636719 L 627.839844 877.199219 C 628.125 874.621094 629.273438 872.328125 631.277344 870.894531 L 938.828125 618.378906 L 587.710938 806.691406 L 587.710938 961.46875 C 587.710938 966.054688 584.273438 970.066406 579.972656 970.925781 C 575.386719 971.789062 570.800781 969.207031 569.082031 964.90625 L 499.429688 784.332031 L 329.75 695.195312 C 315.417969 687.742188 307.390625 672.261719 309.109375 656.210938 C 311.117188 640.160156 322.296875 626.976562 338.058594 622.964844 L 1177.585938 410.574219 C 1192.203125 406.847656 1207.109375 411.71875 1216.855469 423.183594 C 1226.601562 434.652344 1228.605469 450.414062 1222.585938 464.171875 L 933.09375 1105.929688 C 928.222656 1116.820312 918.476562 1124.84375 907.011719 1127.710938 C 903.859375 1128.859375 900.707031 1129.144531 897.554688 1129.144531 Z M 702.933594 964.910156 C 704.941406 964.910156 707.234375 965.480469 708.953125 966.914062 L 885.515625 1105.640625 C 890.386719 1109.367188 896.40625 1110.800781 902.140625 1109.367188 C 908.160156 1107.933594 912.746094 1103.921875 915.324219 1098.476562 L 1204.816406 456.722656 C 1207.96875 449.84375 1206.824219 442.101562 1201.949219 436.082031 C 1197.078125 430.066406 1189.625 427.773438 1182.171875 429.777344 L 342.644531 642.167969 C 332.902344 644.460938 328.886719 652.484375 328.027344 658.792969 C 327.167969 665.382812 329.460938 673.695312 338.347656 678.28125 L 511.183594 768.855469 C 513.1875 770.003906 514.910156 771.722656 515.769531 774.015625 L 568.222656 909.589844 L 568.222656 800.957031 C 568.222656 797.519531 570.226562 794.078125 573.378906 792.359375 L 1016.503906 554.171875 C 1020.804688 551.878906 1026.25 553.027344 1029.113281 557.328125 C 1031.980469 561.339844 1031.121094 567.070312 1027.109375 570.226562 L 645.894531 883.21875 L 624.113281 1068.378906 L 694.910156 969.207031 C 696.34375 967.203125 698.636719 965.769531 701.5 965.195312 C 702.074219 964.910156 702.363281 964.910156 702.933594 964.910156 Z M 702.933594 964.910156 " fill-opacity="1" fill-rule="nonzero"/></g></svg>