<svg xmlns="http://www.w3.org/2000/svg" xmlns:xlink="http://www.w3.org/1999/xlink" width="2048" zoomAndPan="magnify" viewBox="0 0 1536 1535.999932" height="2048" preserveAspectRatio="xMidYMid meet" version="1.0"><defs><clipPath id="48cc9e39fd"><path d="M 0 1500.070312 L 101.253906 1500.070312 L 101.253906 1536 L 0 1536 Z M 0 1500.070312 " clip-rule="nonzero"/></clipPath><clipPath id="05d2017374"><path d="M 22.546875 203.320312 L 1513.546875 203.320312 L 1513.546875 1332.820312 L 22.546875 1332.820312 Z M 22.546875 203.320312 " clip-rule="nonzero"/></clipPath></defs><g clip-path="url(#48cc9e39fd)"><path fill="#ff3131" d="M -96.648438 2833.066406 L -1033.347656 2833.066406 C -1142.605469 2833.066406 -1231.496094 2744.175781 -1231.496094 2634.917969 L -1231.496094 1698.21875 C -1231.496094 1588.960938 -1142.605469 1500.070312 -1033.347656 1500.070312 L -96.648438 1500.070312 C 12.613281 1500.070312 101.5 1588.960938 101.5 1698.21875 L 101.5 2634.917969 C 101.5 2744.175781 12.613281 2833.066406 -96.648438 2833.066406 Z M -1033.347656 1572.125 C -1102.875 1572.125 -1159.441406 1628.691406 -1159.441406 1698.21875 L -1159.441406 2634.917969 C -1159.441406 2704.445312 -1102.875 2761.011719 -1033.347656 2761.011719 L -96.648438 2761.011719 C -27.117188 2761.011719 29.449219 2704.445312 29.449219 2634.917969 L 29.449219 1698.21875 C 29.449219 1628.691406 -27.117188 1572.125 -96.648438 1572.125 Z M -1033.347656 1572.125 " fill-opacity="1" fill-rule="nonzero"/></g><g clip-path="url(#05d2017374)"><path fill="#ffffff" d="M 949.96875 767.074219 L 1513.441406 1332.398438 L 1149.496094 1332.398438 L 767.070312 949.972656 L 384.648438 1332.398438 L 22.546875 1332.398438 L 586.019531 767.074219 L 22.546875 203.601562 L 384.648438 203.601562 L 767.070312 586.027344 L 1149.496094 203.601562 L 1513.441406 203.601562 Z M 894.546875 767.074219 L 1419.222656 1291.753906 L 1166.121094 1291.753906 L 767.070312 894.550781 L 369.871094 1291.753906 L 116.769531 1291.753906 L 641.445312 767.074219 L 116.769531 242.398438 L 369.871094 242.398438 L 767.070312 641.449219 L 1166.121094 242.398438 L 1419.222656 242.398438 Z M 894.546875 767.074219 " fill-opacity="1" fill-rule="evenodd"/></g></svg>