<svg xmlns="http://www.w3.org/2000/svg" xmlns:xlink="http://www.w3.org/1999/xlink" width="2048" zoomAndPan="magnify" viewBox="0 0 1536 1535.999932" height="2048" preserveAspectRatio="xMidYMid meet" version="1.0"><defs><clipPath id="9a71148b61"><path d="M 0 1500.070312 L 101.253906 1500.070312 L 101.253906 1536 L 0 1536 Z M 0 1500.070312 " clip-rule="nonzero"/></clipPath><clipPath id="1a6dd05401"><path d="M 59.039062 245.140625 L 1477 245.140625 L 1477 1290.640625 L 59.039062 1290.640625 Z M 59.039062 245.140625 " clip-rule="nonzero"/></clipPath></defs><g clip-path="url(#9a71148b61)"><path fill="#ff3131" d="M -96.648438 2833.066406 L -1033.347656 2833.066406 C -1142.605469 2833.066406 -1231.496094 2744.175781 -1231.496094 2634.917969 L -1231.496094 1698.21875 C -1231.496094 1588.960938 -1142.605469 1500.070312 -1033.347656 1500.070312 L -96.648438 1500.070312 C 12.613281 1500.070312 101.5 1588.960938 101.5 1698.21875 L 101.5 2634.917969 C 101.5 2744.175781 12.613281 2833.066406 -96.648438 2833.066406 Z M -1033.347656 1572.125 C -1102.875 1572.125 -1159.441406 1628.691406 -1159.441406 1698.21875 L -1159.441406 2634.917969 C -1159.441406 2704.445312 -1102.875 2761.011719 -1033.347656 2761.011719 L -96.648438 2761.011719 C -27.117188 2761.011719 29.449219 2704.445312 29.449219 2634.917969 L 29.449219 1698.21875 C 29.449219 1628.691406 -27.117188 1572.125 -96.648438 1572.125 Z M -1033.347656 1572.125 " fill-opacity="1" fill-rule="nonzero"/></g><g clip-path="url(#1a6dd05401)"><path fill="#ffffff" d="M 295.738281 245.144531 C 165.800781 245.144531 59.609375 351.335938 59.609375 481.273438 L 59.609375 1054.730469 C 59.609375 1184.667969 165.800781 1290.855469 295.738281 1290.855469 L 1240.253906 1290.855469 C 1370.191406 1290.855469 1476.378906 1184.667969 1476.378906 1054.730469 L 1476.378906 481.273438 C 1476.378906 351.335938 1370.191406 245.144531 1240.253906 245.144531 Z M 295.738281 346.34375 L 1240.253906 346.34375 C 1315.878906 346.34375 1375.183594 405.648438 1375.183594 481.273438 L 1375.183594 1054.730469 C 1375.183594 1130.355469 1315.878906 1189.660156 1240.253906 1189.660156 L 295.738281 1189.660156 C 220.113281 1189.660156 160.808594 1130.355469 160.808594 1054.730469 L 160.808594 481.273438 C 160.808594 405.648438 220.113281 346.34375 295.738281 346.34375 Z M 651.511719 498.140625 C 649.824219 498.089844 648.136719 498.121094 646.449219 498.238281 C 644.761719 498.355469 643.085938 498.554688 641.417969 498.839844 C 639.753906 499.125 638.105469 499.492188 636.476562 499.941406 C 634.84375 500.390625 633.242188 500.921875 631.664062 501.53125 C 630.089844 502.140625 628.546875 502.832031 627.039062 503.597656 C 625.53125 504.359375 624.066406 505.199219 622.640625 506.109375 C 621.21875 507.023438 619.84375 508.003906 618.519531 509.054688 C 617.191406 510.101562 615.921875 511.214844 614.710938 512.390625 C 613.496094 513.570312 612.34375 514.804688 611.253906 516.097656 C 610.164062 517.390625 609.140625 518.734375 608.1875 520.128906 C 607.230469 521.523438 606.347656 522.960938 605.535156 524.445312 C 604.726562 525.929688 603.988281 527.449219 603.332031 529.007812 C 602.671875 530.5625 602.09375 532.152344 601.59375 533.765625 C 601.09375 535.382812 600.675781 537.019531 600.339844 538.675781 C 600.003906 540.332031 599.753906 542 599.585938 543.679688 C 599.414062 545.363281 599.332031 547.050781 599.332031 548.738281 L 599.332031 987.265625 C 599.324219 988.816406 599.386719 990.367188 599.523438 991.914062 C 599.65625 993.460938 599.859375 995 600.136719 996.523438 C 600.414062 998.054688 600.757812 999.566406 601.171875 1001.0625 C 601.589844 1002.558594 602.070312 1004.03125 602.621094 1005.484375 C 603.171875 1006.933594 603.789062 1008.359375 604.46875 1009.753906 C 605.152344 1011.148438 605.898438 1012.507812 606.703125 1013.832031 C 607.511719 1015.160156 608.375 1016.449219 609.300781 1017.695312 C 610.226562 1018.941406 611.207031 1020.144531 612.246094 1021.300781 C 613.28125 1022.457031 614.367188 1023.5625 615.503906 1024.621094 C 616.644531 1025.675781 617.828125 1026.679688 619.058594 1027.625 C 620.285156 1028.574219 621.558594 1029.464844 622.871094 1030.292969 C 624.183594 1031.125 625.527344 1031.890625 626.910156 1032.597656 C 628.292969 1033.304688 629.707031 1033.945312 631.148438 1034.523438 C 632.589844 1035.101562 634.054688 1035.609375 635.542969 1036.046875 C 637.03125 1036.488281 638.539062 1036.863281 640.058594 1037.167969 C 641.582031 1037.46875 643.117188 1037.703125 644.660156 1037.863281 C 649.761719 1038.414062 654.828125 1038.199219 659.859375 1037.207031 C 664.894531 1036.21875 669.664062 1034.503906 674.175781 1032.0625 L 1078.96875 812.800781 C 1080.96875 811.722656 1082.886719 810.515625 1084.722656 809.179688 C 1086.5625 807.84375 1088.300781 806.386719 1089.941406 804.816406 C 1091.582031 803.242188 1093.113281 801.570312 1094.527344 799.789062 C 1095.945312 798.015625 1097.234375 796.148438 1098.398438 794.199219 C 1099.5625 792.25 1100.589844 790.226562 1101.484375 788.136719 C 1102.375 786.046875 1103.125 783.90625 1103.726562 781.71875 C 1104.332031 779.527344 1104.785156 777.304688 1105.089844 775.054688 C 1105.394531 772.800781 1105.546875 770.539062 1105.546875 768.265625 C 1105.546875 765.992188 1105.394531 763.730469 1105.089844 761.476562 C 1104.785156 759.226562 1104.332031 757.003906 1103.726562 754.816406 C 1103.125 752.625 1102.375 750.484375 1101.484375 748.394531 C 1100.589844 746.304688 1099.5625 744.28125 1098.398438 742.332031 C 1097.234375 740.382812 1095.945312 738.515625 1094.527344 736.738281 C 1093.113281 734.960938 1091.582031 733.285156 1089.941406 731.714844 C 1088.300781 730.144531 1086.5625 728.6875 1084.722656 727.351562 C 1082.886719 726.015625 1080.96875 724.808594 1078.96875 723.726562 L 674.175781 504.464844 C 670.699219 502.535156 667.046875 501.035156 663.21875 499.96875 C 659.386719 498.898438 655.488281 498.289062 651.511719 498.140625 Z M 700.53125 634.125 L 948.253906 768 L 700.53125 902.40625 Z M 700.53125 634.125 " fill-opacity="1" fill-rule="nonzero"/></g></svg>